<svg width="39" height="29" viewBox="0 0 39 29" fill="none" xmlns="http://www.w3.org/2000/svg">
<g id="SVGRepo_iconCarrier">
<path id="Vector" d="M22.8505 10.5463C22.8505 9.57553 22.0635 8.78857 21.0927 8.78857H20.2139C14.8746 8.78857 10.5464 13.1168 10.5464 18.4561C10.5464 23.7953 14.8746 28.1236 20.2139 28.1236H29.0025C34.3418 28.1236 38.67 23.7953 38.67 18.4561C38.67 14.0778 35.7594 10.3791 31.7674 9.18974C30.7775 8.89478 29.8814 9.71818 29.8814 10.7513V10.8421C29.8814 11.7168 30.5396 12.4332 31.3482 12.767C33.5823 13.6891 35.1545 15.8889 35.1545 18.4561C35.1545 21.8538 32.4002 24.6081 29.0025 24.6081H20.2139C16.8162 24.6081 14.0618 21.8538 14.0618 18.4561C14.0618 15.0584 16.8162 12.304 20.2139 12.304H21.0927C22.0635 12.304 22.8505 11.5171 22.8505 10.5463Z" fill="#008234"/>
<path id="Vector_2" d="M18.4561 0C23.7954 0 28.1236 4.32828 28.1236 9.6675C28.1236 15.0068 23.7954 19.335 18.4561 19.335H17.5773C16.6065 19.335 15.8195 18.5481 15.8195 17.5773C15.8195 16.6065 16.6065 15.8195 17.5773 15.8195H18.4561C21.8538 15.8195 24.6082 13.0652 24.6082 9.6675C24.6082 6.26981 21.8538 3.51545 18.4561 3.51545H9.6675C6.26981 3.51545 3.51545 6.26981 3.51545 9.6675C3.51545 12.2347 5.08776 14.4345 7.32187 15.3566C8.13033 15.6902 8.78864 16.4068 8.78864 17.2814V17.3723C8.78864 18.4053 7.89262 19.2288 6.90258 18.9339C2.91066 17.7444 0 14.0458 0 9.6675C0 4.32828 4.32828 0 9.6675 0H18.4561Z" fill="#008234"/>
</g>
</svg>
