<svg width="44" height="39" viewBox="0 0 44 39" fill="none" xmlns="http://www.w3.org/2000/svg">
<g id="SVGRepo_iconCarrier">
<path id="Vector" d="M32.5556 30.4444H32.5767M33.4 24.1111H34.6667C36.634 24.1111 37.6176 24.1111 38.3936 24.4324C39.4281 24.861 40.2501 25.683 40.6787 26.7175C41 27.4935 41 28.4771 41 30.4444C41 32.4118 41 33.3954 40.6787 34.1714C40.2501 35.2058 39.4281 36.0279 38.3936 36.4565C37.6176 36.7778 36.634 36.7778 34.6667 36.7778H9.33333C7.36603 36.7778 6.38238 36.7778 5.60644 36.4565C4.57189 36.0279 3.74993 35.2058 3.3214 34.1714C3 33.3954 3 32.4118 3 30.4444C3 28.4771 3 27.4935 3.3214 26.7175C3.74993 25.683 4.57189 24.861 5.60644 24.4324C6.38238 24.1111 7.36603 24.1111 9.33333 24.1111H10.6M22 26.2222V3M22 26.2222L15.6667 19.8889M22 26.2222L28.3333 19.8889" stroke="#008234" stroke-width="4.33" stroke-linecap="round" stroke-linejoin="round"/>
</g>
</svg>
