<svg width="39" height="40" viewBox="0 0 39 40" fill="none" xmlns="http://www.w3.org/2000/svg">
<g id="SVGRepo_iconCarrier">
<path id="Vector" d="M22.5495 12.9448L22.1319 15.8679L19.2088 17.1207L16.7033 15.4503L14.1978 18.3734L15.4506 20.4613L14.1978 23.802L11.6923 24.2196V27.9778L14.6154 28.3954L15.4506 30.9009L13.7803 33.824L16.7033 36.7471L19.2088 35.0767L22.1319 36.3295L22.5495 39.2526H26.7253L27.1429 36.3295L29.6484 35.0767L32.1539 36.7471L35.4945 33.824L33.4066 30.9009L34.2418 28.813L38 28.3954V24.2196L34.6594 23.802L33.4066 20.8789L35.0769 18.3734L32.5714 15.4503L30.066 17.1207L26.7253 15.8679L26.3077 12.9448H22.5495ZM24.2198 18.791C27.978 18.791 31.7363 22.1317 31.7363 25.4723C31.7363 30.0657 27.978 32.9888 24.2198 32.9888C20.4616 32.9888 17.1209 30.0657 17.1209 25.4723C17.1209 22.1317 20.4616 18.791 24.2198 18.791Z" fill="white" stroke="white" stroke-width="0.96"/>
<path id="Vector_2" d="M15.033 29.6484L28.3956 17.5385H21.7143V0H7.0989V17.5385H0L15.033 29.6484Z" fill="white" fill-opacity="0.5"/>
</g>
</svg>
