<svg width="38" height="29" viewBox="0 0 38 29" fill="none" xmlns="http://www.w3.org/2000/svg">
<g id="SVGRepo_iconCarrier">
<path id="Vector" d="M0 9.5L2.78248 6.71752C7.08365 2.41635 12.9172 0 19 0C25.0828 0 30.9163 2.41637 35.2174 6.71752L38 9.5L34.6413 12.8587L31.8587 10.0763C28.4485 6.66591 23.8229 4.75 19 4.75C14.177 4.75 9.55161 6.66591 6.14125 10.0763L3.35875 12.8587L0 9.5Z" fill="#008234"/>
<path id="Vector_2" d="M10.0763 19.5762L6.71752 16.2175L9.5 13.435C12.0195 10.9155 15.4368 9.5 19 9.5C22.5632 9.5 25.9804 10.9155 28.5 13.435L31.2826 16.2175L27.9238 19.5762L25.1413 16.7939C23.5125 15.165 21.3034 14.25 19 14.25C16.6966 14.25 14.4875 15.165 12.8587 16.7939L10.0763 19.5762Z" fill="#008234"/>
<path id="Vector_3" d="M19 28.5L13.435 22.9351L16.2175 20.1526C16.9555 19.4147 17.9564 19 19 19C20.0436 19 21.0445 19.4147 21.7825 20.1526L24.5649 22.9351L19 28.5Z" fill="#008234"/>
</g>
</svg>
